# xmcd
#
# Track frame offsets:
#	150
#	19049
#	36128
#	56920
#	77444
#	91744
#	108506
#	125164
#	145728
#	163311
#	183100
#	199403
#
# Disc length: 2884 seconds
#
# Revision: 9
# Processed by: cddbd v1.5.2PL0 Copyright (c) Steve Scherf et al.
# Submitted via: audiograbber 1.83.01
#
DISCID=a10b420c
DTITLE=Juli - In Love
DYEAR=2010
DGENRE=Pop
TTITLE0=Immer wenn es dunkel wird
TTITLE1=Süchtig
TTITLE2=Eisenherz
TTITLE3=Woanders zu Hause
TTITLE4=Mit verbundenen Augen
TTITLE5=Elektrisches Gefühl
TTITLE6=Ich bin in Love (Paris)
TTITLE7=Du lügst so schön
TTITLE8=Maschinen
TTITLE9=Jessica
TTITLE10=Die Sterne fallen
TTITLE11=Seenot
EXTD=
EXTT0=
EXTT1=
EXTT2=
EXTT3=
EXTT4=
EXTT5=
EXTT6=
EXTT7=
EXTT8=
EXTT9=
EXTT10=
EXTT11=
PLAYORDER=
